<svg width="20" height="16" viewBox="0 0 20 16" fill="none" xmlns="http://www.w3.org/2000/svg">
<path fill-rule="evenodd" clip-rule="evenodd" d="M13.8644 1.71751C8.36027 -0.416755 2.16809 2.31509 0.0338193 7.81926C-0.0112731 7.93555 -0.0112731 8.0645 0.0338193 8.18079C1.11992 10.9818 3.33457 13.1964 6.13556 14.2825C11.6397 16.4168 17.8319 13.685 19.9662 8.18079C20.0113 8.0645 20.0113 7.93555 19.9662 7.81926C18.8801 5.01827 16.6654 2.80361 13.8644 1.71751ZM18.9617 8.00007C16.9629 12.868 11.4257 15.2613 6.49709 13.3502C4.01868 12.3892 2.04671 10.4534 1.03835 7.99997C3.03714 3.132 8.57431 0.738787 13.5029 2.64988C15.9813 3.61089 17.9533 5.54668 18.9617 8.00007ZM10 12C7.79086 12 6 10.2092 6 8.00002C6 5.79088 7.79086 4.00002 10 4.00002C12.2091 4.00002 14 5.79088 14 8.00002C14 10.2092 12.2091 12 10 12ZM13 8.00002C13 9.65688 11.6569 11 10 11C8.34315 11 7 9.65688 7 8.00002C7 6.34317 8.34315 5.00002 10 5.00002C11.6569 5.00002 13 6.34317 13 8.00002Z" fill="white"/>
</svg>
